<?xml version="1.0" encoding="UTF-8" standalone="no"?>
<!-- Created with Inkscape (http://www.inkscape.org/) -->

<svg
   xmlns:dc="http://purl.org/dc/elements/1.1/"
   xmlns:cc="http://creativecommons.org/ns#"
   xmlns:rdf="http://www.w3.org/1999/02/22-rdf-syntax-ns#"
   xmlns:svg="http://www.w3.org/2000/svg"
   xmlns="http://www.w3.org/2000/svg"
   xmlns:sodipodi="http://sodipodi.sourceforge.net/DTD/sodipodi-0.dtd"
   xmlns:inkscape="http://www.inkscape.org/namespaces/inkscape"
   width="146.33968mm"
   height="124.73195mm"
   viewBox="0 0 518.52642 441.96359"
   id="svg6985"
   version="1.1"
   inkscape:version="0.91 r13725"
   sodipodi:docname="omerxi_logo_fefefe.svg">
  <defs
     id="defs6987">
    <clipPath
       clipPathUnits="userSpaceOnUse"
       id="clipPath4239">
      <path
         d="m 0,362 409.986,0 0,-362 L 0,0 0,362 Z"
         id="path4241"
         inkscape:connector-curvature="0" />
    </clipPath>
  </defs>
  <sodipodi:namedview
     id="base"
     pagecolor="#000000"
     bordercolor="#666666"
     borderopacity="1.0"
     inkscape:pageopacity="0"
     inkscape:pageshadow="2"
     inkscape:zoom="0.28768081"
     inkscape:cx="22.895416"
     inkscape:cy="78.641521"
     inkscape:document-units="px"
     inkscape:current-layer="layer1"
     showgrid="false"
     inkscape:window-width="1305"
     inkscape:window-height="744"
     inkscape:window-x="61"
     inkscape:window-y="24"
     inkscape:window-maximized="1"
     fit-margin-top="0"
     fit-margin-left="0"
     fit-margin-right="0"
     fit-margin-bottom="0" />
  <metadata
     id="metadata6990">
    <rdf:RDF>
      <cc:Work
         rdf:about="">
        <dc:format>image/svg+xml</dc:format>
        <dc:type
           rdf:resource="http://purl.org/dc/dcmitype/StillImage" />
        <dc:title></dc:title>
      </cc:Work>
    </rdf:RDF>
  </metadata>
  <g
     inkscape:label="Calque 1"
     inkscape:groupmode="layer"
     id="layer1"
     transform="translate(-2.6153888,-582.38841)">
    <g
       style="fill:#fefefe;fill-opacity:1"
       transform="matrix(3.6232465,0,0,-3.6232465,261.87897,961.87891)"
       id="g4265">
      <path
         inkscape:connector-curvature="0"
         id="path4267"
         style="fill:#fefefe;fill-opacity:1;fill-rule:nonzero;stroke:none"
         d="m 0,0 c -4.134,0 -7.481,-3.35 -7.481,-7.481 0,-4.131 3.347,-7.482 7.481,-7.482 4.132,0 7.481,3.351 7.481,7.482 C 7.481,-3.35 4.132,0 0,0" />
    </g>
    <g
       style="fill:#fefefe;fill-opacity:1"
       transform="matrix(3.6232465,0,0,-3.6232465,461.55753,989.60508)"
       id="g4269">
      <path
         inkscape:connector-curvature="0"
         id="path4271"
         style="fill:#fefefe;fill-opacity:1;fill-rule:nonzero;stroke:none"
         d="m 0,0 -46.602,24.717 42.717,23.433 3.278,1.797 0.066,0.038 c 3.472,1.992 6.455,4.511 8.91,7.399 l 0,-37.331 C 8.369,11.72 5.556,4.986 0,0 m -110.221,0 c -5.555,4.986 -8.368,11.72 -8.368,20.053 l 0,37.331 c 2.455,-2.888 5.438,-5.407 8.908,-7.399 L -63.619,24.717 -110.221,0 Z m 17.516,104.21 c 4.45,0 8.93,-0.953 12.957,-2.756 l 24.635,-11.773 24.669,11.787 c 3.938,1.861 8.38,2.845 12.846,2.845 9.736,0 18.165,-4.564 22.551,-12.208 7.051,-12.292 2.799,-28.028 -9.48,-35.095 l -50.586,-27.747 -16.393,8.993 -34.188,18.754 c -0.383,0.221 -0.759,0.45 -1.127,0.687 -10.669,6.886 -14.664,20.578 -9.543,32.066 0.353,0.793 0.75,1.574 1.191,2.342 4.413,7.693 12.602,12.105 22.468,12.105 M 16.424,80.143 c -0.063,2.719 -0.454,5.451 -1.192,8.132 -0.739,2.687 -1.824,5.323 -3.273,7.849 -5.844,10.186 -16.893,16.266 -29.557,16.266 -5.651,0 -11.287,-1.251 -16.313,-3.627 l -21.202,-10.131 -21.196,10.131 -0.087,0.04 c -5.071,2.279 -10.711,3.483 -16.309,3.483 -12.65,0 -23.669,-6.041 -29.474,-16.162 -1.449,-2.526 -2.535,-5.162 -3.274,-7.849 -0.737,-2.681 -1.13,-5.413 -1.192,-8.132 l -0.021,0 0,-60.09 c 0,-11.773 4.687,-21.493 13.554,-28.114 l 2.049,-1.529 55.917,29.658 0.033,-0.017 0.035,0.018 55.92,-29.659 2.05,1.529 C 11.758,-1.44 16.445,8.28 16.445,20.053 l 0,60.09 -0.021,0 z" />
    </g>
  </g>
</svg>
